<?xml version="1.0" encoding="UTF-8"?>
<!DOCTYPE svg PUBLIC "-//W3C//DTD SVG 1.1//EN" "http://www.w3.org/Graphics/SVG/1.1/DTD/svg11.dtd">
<!-- Creator: CorelDRAW X7 -->
<svg xmlns="http://www.w3.org/2000/svg" xml:space="preserve" width="67.5035mm" height="63.0559mm" version="1.1" style="shape-rendering:geometricPrecision; text-rendering:geometricPrecision; image-rendering:optimizeQuality; fill-rule:evenodd; clip-rule:evenodd"
viewBox="0 0 6750 6306"
 xmlns:xlink="http://www.w3.org/1999/xlink">
 <defs>
  <style type="text/css">
   <![CDATA[
    .fil2 {fill:black}
    .fil3 {fill:#8FC53C}
    .fil0 {fill:black;fill-rule:nonzero}
    .fil1 {fill:#A8CF45;fill-rule:nonzero}
   ]]>
  </style>
 </defs>
 <g id="Capa_x0020_1">
  <metadata id="CorelCorpID_0Corel-Layer"/>
  <path class="fil0" d="M2180 5239l0 1067 267 0 0 -937c0,-87 -43,-130 -130,-130l-137 0zm-1905 -303l-135 0c-39,0 -72,15 -99,45 -27,29 -41,62 -41,99l0 721c0,168 45,294 136,376 88,86 221,129 399,129 174,0 305,-43 396,-129 93,-88 139,-213 139,-376l0 -865 -275 0 0 834c0,199 -86,298 -260,297 -173,-1 -260,-100 -260,-297l0 -834zm1121 132c0,-88 -44,-132 -133,-132l-132 0 0 899c0,316 165,473 494,471 327,-6 490,-183 490,-534 0,-357 -140,-541 -420,-552 -132,0 -232,55 -299,164l0 -316zm447 693c0,213 -75,319 -225,319 -151,0 -225,-106 -222,-319 7,-202 83,-304 225,-304 143,0 217,102 222,304zm337 -825l0 209 267 0 0 -79c3,-86 -40,-130 -130,-130l-137 0z"/>
  <path class="fil1" d="M6427 5542c37,42 55,114 55,217l0 547 268 0 0 -618c8,-231 -63,-374 -213,-429 -199,-71 -367,-28 -503,130l0 -319c0,-89 -45,-134 -134,-134l-134 0 0 1370 268 0 0 -547c0,-90 19,-162 59,-217 39,-52 95,-79 169,-79 68,0 123,27 165,79zm-2664 283l-263 0c-15,76 -48,136 -99,179 -54,41 -120,61 -198,61 -115,0 -202,-38 -264,-114 -61,-77 -91,-186 -91,-328 0,-145 30,-256 91,-332 66,-76 157,-115 271,-115 130,0 218,49 263,145l0 0c26,54 68,80 126,80l164 0c-13,-144 -66,-259 -160,-343 -99,-81 -230,-122 -393,-122 -206,0 -362,60 -469,179 -109,117 -164,286 -164,508 0,216 53,385 160,507 104,117 254,176 450,176 171,0 305,-42 405,-126 101,-84 158,-203 171,-355zm752 413c129,-70 193,-194 193,-371l0 -356c-5,-193 -152,-290 -440,-290 -243,0 -379,97 -410,290l263 0c13,-49 65,-73 158,-73 109,0 165,29 170,89 0,56 -57,91 -170,104 -160,15 -274,50 -344,104 -69,55 -105,134 -108,240 0,137 54,232 163,286 72,36 159,50 262,43 106,-8 194,-30 263,-66zm-62 -479l0 96c0,75 -20,133 -62,174 -43,41 -101,62 -174,62 -82,0 -126,-41 -131,-124 0,-77 53,-126 158,-146 78,-16 147,-37 209,-62zm320 183c0,121 39,211 119,270 73,63 182,94 330,94 157,0 276,-30 356,-90 82,-59 124,-147 124,-263 0,-72 -25,-134 -74,-186 -57,-54 -174,-99 -352,-135 -137,-26 -205,-66 -205,-120 0,-54 51,-81 154,-81 88,0 141,23 159,69l0 0c16,42 54,63 116,66l167 0c-5,-108 -46,-194 -124,-255 -80,-60 -187,-90 -321,-90 -132,3 -234,33 -306,90 -75,61 -112,144 -112,247 2,166 119,269 352,310 180,31 271,74 271,128 0,67 -56,100 -167,100 -72,0 -125,-12 -158,-38 -36,-24 -56,-62 -58,-116l-271 0z"/>
  <path class="fil2" d="M4861 1199c129,241 202,535 202,884 0,699 -611,1449 -1178,1937 -314,271 -496,483 -510,483 -14,0 -189,-205 -503,-483 -536,-474 -1184,-1263 -1184,-1937 0,-380 93,-701 254,-958 -69,193 -114,394 -124,598 -17,348 70,685 275,969 264,366 824,692 1282,692 682,0 1235,-553 1235,-1235 0,-179 -38,-349 -107,-502 47,-64 95,-127 144,-189 60,-76 122,-151 185,-225 9,-11 19,-23 29,-34z"/>
  <path class="fil3" d="M2749 198c0,0 1016,678 1594,974 -67,99 -726,1077 -600,1835 -4,0 -8,1 -11,2 -36,-152 -44,-313 -38,-467 11,-260 65,-526 139,-775 51,-169 101,-323 201,-470l-80 -41c-190,-97 -378,-198 -566,-299 -283,-152 -566,-307 -847,-463 62,-97 131,-195 208,-296z"/>
  <path class="fil3" d="M2376 494c0,0 963,536 1541,833 -67,98 -487,1158 -213,1863 -1097,276 -2540,-861 -1328,-2696zm411 1268c-92,-20 -111,-32 -95,-102 20,-90 62,-92 135,-81l115 18c78,11 106,25 87,114l207 31c60,-274 -65,-313 -248,-353l24 -109 -115 -18 -24 110c-248,-38 -339,2 -394,256 -45,202 -19,274 263,339l113 27c109,27 126,45 110,119 -23,103 -68,96 -155,83l-115 -17c-89,-13 -124,-24 -97,-149l-213 -32c-64,290 46,356 265,389l-27 122 115 18 27 -123c246,37 361,-23 415,-269 58,-263 -71,-293 -281,-344l-112 -29z"/>
  <path class="fil3" d="M3181 0c0,0 1091,757 1669,1053 -67,99 -969,1052 -1015,1815l-1 0c-10,-175 17,-356 59,-524 65,-257 171,-510 293,-744 66,-128 141,-263 223,-382l51 -75 -81 -42c-215,-110 -426,-236 -633,-362 -261,-159 -521,-323 -777,-491 65,-82 135,-165 212,-248z"/>
 </g>
</svg>
